<svg xmlns="http://www.w3.org/2000/svg" viewBox="0 0 720 420">
  <rect width="720" height="420" rx="24" fill="#0f172a"/>
  <rect x="32" y="40" width="656" height="48" rx="12" fill="#1e293b"/>
  <circle cx="64" cy="64" r="10" fill="#475569"/>
  <circle cx="94" cy="64" r="10" fill="#475569"/>
  <circle cx="124" cy="64" r="10" fill="#475569"/>
  <rect x="160" y="56" width="320" height="16" rx="8" fill="#334155"/>
  <rect x="32" y="112" width="656" height="248" rx="16" fill="#111827"/>
  <rect x="56" y="136" width="200" height="24" rx="6" fill="#334155"/>
  <rect x="56" y="176" width="320" height="16" rx="8" fill="#1f2937"/>
  <rect x="56" y="208" width="380" height="16" rx="8" fill="#1f2937"/>
  <rect x="56" y="240" width="280" height="16" rx="8" fill="#1f2937"/>
  <rect x="56" y="272" width="320" height="16" rx="8" fill="#1f2937"/>
  <rect x="56" y="304" width="360" height="16" rx="8" fill="#1f2937"/>
  <rect x="56" y="336" width="260" height="16" rx="8" fill="#1f2937"/>
  <rect x="528" y="136" width="132" height="80" rx="16" fill="#1d4ed8" opacity=".4"/>
  <rect x="544" y="152" width="100" height="12" rx="6" fill="#60a5fa"/>
  <rect x="544" y="172" width="80" height="8" rx="4" fill="#bfdbfe"/>
  <rect x="544" y="188" width="72" height="8" rx="4" fill="#dbeafe"/>
  <rect x="528" y="240" width="132" height="32" rx="10" fill="#2563eb" opacity=".35"/>
  <rect x="56" y="360" width="160" height="24" rx="12" fill="#1d4ed8" opacity=".4"/>
  <rect x="56" y="176" width="160" height="16" rx="8" fill="#1e293b"/>
  <rect x="56" y="208" width="220" height="16" rx="8" fill="#1e293b"/>
  <rect x="56" y="240" width="200" height="16" rx="8" fill="#1e293b"/>
  <rect x="56" y="272" width="260" height="16" rx="8" fill="#1e293b"/>
  <rect x="56" y="304" width="220" height="16" rx="8" fill="#1e293b"/>
</svg>
