<svg xmlns="http://www.w3.org/2000/svg" viewBox="0 0 720 420">
  <rect width="720" height="420" rx="24" fill="#f8fafc"/>
  <rect x="32" y="40" width="656" height="48" rx="12" fill="#e2e8f0"/>
  <circle cx="64" cy="64" r="10" fill="#f87171"/>
  <circle cx="94" cy="64" r="10" fill="#facc15"/>
  <circle cx="124" cy="64" r="10" fill="#34d399"/>
  <rect x="160" y="56" width="320" height="16" rx="8" fill="#cbd5f5"/>
  <rect x="32" y="112" width="656" height="248" rx="16" fill="#fff"/>
  <rect x="56" y="136" width="200" height="24" rx="6" fill="#1d4ed8"/>
  <rect x="56" y="176" width="320" height="16" rx="8" fill="#94a3b8"/>
  <rect x="56" y="208" width="380" height="16" rx="8" fill="#cbd5e1"/>
  <rect x="56" y="240" width="280" height="16" rx="8" fill="#cbd5e1"/>
  <rect x="56" y="272" width="320" height="16" rx="8" fill="#cbd5e1"/>
  <rect x="56" y="304" width="360" height="16" rx="8" fill="#cbd5e1"/>
  <rect x="56" y="336" width="260" height="16" rx="8" fill="#cbd5e1"/>
  <rect x="528" y="136" width="132" height="80" rx="16" fill="#2563eb" opacity=".12"/>
  <rect x="544" y="152" width="100" height="12" rx="6" fill="#2563eb"/>
  <rect x="544" y="172" width="80" height="8" rx="4" fill="#93c5fd"/>
  <rect x="544" y="188" width="72" height="8" rx="4" fill="#bfdbfe"/>
  <rect x="528" y="240" width="132" height="32" rx="10" fill="#2563eb" opacity=".15"/>
  <rect x="56" y="360" width="160" height="24" rx="12" fill="#2563eb" opacity=".2"/>
</svg>
